#!OML:ASF E:\Steps\Project 1\Capture day 1\Session 2\Subject.ASF
:FULLY-SPECIFIED
:DEGREES
148
root -0.939474 17.9983 21.0088 -153.093 -3.59138 177.348
lowerback -24.4496 -1.39849 -6.8508
upperback -0.152697 -0.178244 -0.114332
thorax 13.6208 -0.667882 3.71509
lowerneck -2.21996 1.4232 0.454062
upperneck 6.01335 1.58216 2.98589
head 2.24818 0.825909 0.906816
rclavicle -6.85807e-015 4.87022e-015
rhumerus -45.804 -9.10475 -83.1573
rradius 49.0296
rwrist -24.5366
rhand 6.46152 -64.746
rfingers 7.12502
rthumb 31.763 451.999
lclavicle -6.85807e-015 4.87022e-015
lhumerus -30.2039 2.36401 82.3231
lradius 21.1683
lwrist -3.13048
lhand -21.2111 -11.8668
lfingers 7.12502
lthumb 5.17052 18.0501
rfemur -24.7387 3.96995 19.5351
rtibia 5.20528
rfoot -16.5579 -1.35749
rtoes -15.6074
lfemur -25.9258 -8.25083 -22.8588
ltibia 7.06074
lfoot -5.61248 -2.07381
ltoes -34.8238
149
root -0.943733 17.9984 21.0007 -153.115 -3.7125 177.377
lowerback -24.3994 -1.35355 -6.76074
upperback -0.212139 -0.156259 -0.106931
thorax 13.5189 -0.648909 3.67951
lowerneck -2.23266 1.81832 0.554821
upperneck 5.3234 2.1718 2.64214
head 2.01948 1.11841 0.78745
rclavicle 3.03147e-015 1.41137e-014
rhumerus -46.0139 -9.20078 -82.9828
rradius 49.0273
rwrist -24.241
rhand 6.79979 -65.1482
rfingers 7.12502
rthumb 32.0851 452.337
lclavicle 3.03147e-015 1.41137e-014
lhumerus -30.2806 2.85252 82.0245
lradius 20.6992
lwrist -3.64064
lhand -21.3676 -11.6683
lfingers 7.12502
lthumb 5.01941 18.2522
rfemur -24.6533 4.10611 19.5275
rtibia 5.19147
rfoot -16.6906 -1.61077
rtoes -16.4156
lfemur -25.8921 -8.21358 -22.8458
ltibia 7.08504
lfoot -5.58961 -2.18389
ltoes -35.8576
150
root -0.948729 17.9991 20.9925 -153.187 -3.91357 177.362
lowerback -24.2685 -1.30828 -6.72046
upperback -0.255612 -0.120077 -0.116361
thorax 13.3896 -0.624354 3.65818
lowerneck -2.40149 2.15678 0.770983
upperneck 4.98644 2.64312 2.45091
head 1.93931 1.35639 0.700122
rclavicle 8.67198e-015 1.05356e-014
rhumerus -46.1731 -9.32113 -82.8006
rradius 48.9908
rwrist -23.9498
rhand 7.80474 -64.0871
rfingers 7.12502
rthumb 33.0414 451.079
lclavicle 8.67198e-015 1.05356e-014
lhumerus -30.2841 3.19502 81.7439
lradius 20.2178
lwrist -4.03363
lhand -21.3102 -11.5556
lfingers 7.12502
lthumb 5.07483 18.3636
rfemur -24.4607 4.19521 19.4916
rtibia 5.10723
rfoot -16.7264 -1.91593
rtoes -16.423
lfemur -25.8133 -8.22343 -22.8691
ltibia 7.14386
lfoot -5.6289 -2.4288
ltoes -35.144
151
root -0.951933 17.9994 20.9838 -153.23 -4.05053 177.267
lowerback -24.2175 -1.28605 -6.8322
upperback -0.285088 -0.0637239 -0.143678
thorax 13.32 -0.603046 3.71056
lowerneck -2.55793 2.49118 0.960748
upperneck 4.6809 3.1018 2.31648
head 1.86847 1.58749 0.635374
rclavicle 7.14382e-015 1.0635e-014
rhumerus -46.217 -9.47374 -82.669
rradius 48.7873
rwrist -23.9324
rhand 8.16054 -63.3665
rfingers 7.12502
rthumb 33.3797 450.286
lclavicle 7.14382e-015 1.0635e-014
lhumerus -30.2889 3.40805 81.523
lradius 19.8606
lwrist -4.38762
lhand -21.1918 -11.4522
lfingers 7.12502
lthumb 5.18917 18.4643
rfemur -24.3133 4.22489 19.3757
rtibia 5.04631
rfoot -16.7668 -2.13498
rtoes -16.3205
lfemur -25.7364 -8.23431 -22.9888
ltibia 7.19143
lfoot -5.70411 -2.68786
ltoes -34.1431
152
root -0.955508 17.9973 20.9756 -153.142 -4.17182 177.228
lowerback -24.3254 -1.26923 -6.84672
upperback -0.336601 -0.0362239 -0.163716
thorax 13.3161 -0.59267 3.70532
lowerneck -2.65599 2.90353 1.05549
upperneck 4.24669 3.6763 2.12975
head 1.74595 1.87299 0.570296
rclavicle 3.72721e-017 1.46604e-014
rhumerus -46.1847 -9.64743 -82.6421
rradius 48.4414
rwrist -24.261
rhand 7.451 -62.7585
rfingers 7.12502
rthumb 32.7049 630.179
lclavicle 3.72721e-017 1.46604e-014
lhumerus -30.3338 3.65832 81.3112
lradius 19.6587
lwrist -4.60365
lhand -21.0322 -11.4467
lfingers 7.12502
lthumb 5.34325 18.4659
rfemur -24.3563 4.07095 19.3651
rtibia 5.04766
rfoot -16.8797 -2.09148
rtoes -16.4827
lfemur -25.8044 -8.1678 -23.0615
ltibia 7.19899
lfoot -5.72561 -2.89751
ltoes -34.3523
153
root -0.962848 17.9928 20.9701 -152.915 -4.2838 177.298
lowerback -24.5281 -1.18421 -6.67472
upperback -0.438253 0.026535 -0.176403
thorax 13.301 -0.555417 3.61383
lowerneck -2.80657 3.19932 1.24484
upperneck 3.7953 4.09727 1.76269
head 1.63604 2.0804 0.430899
rclavicle 6.83322e-015 2.54444e-014
rhumerus -46.3035 -9.85459 -82.596
rradius 48.2594
rwrist -24.9354
rhand 6.35656 -62.1227
rfingers 7.12502
rthumb 31.663 630.604
lclavicle 6.83322e-015 2.54444e-014
lhumerus -30.3027 4.15298 81.0268
lradius 19.3446
lwrist -4.95399
lhand -20.6609 -11.4084
lfingers 7.12502
lthumb 5.70179 18.4949
rfemur -24.6823 3.58699 19.5435
rtibia 5.23709
rfoot -16.9642 -1.59523
rtoes -16.0769
lfemur -26.0748 -8.14984 -22.9929
ltibia 7.23643
lfoot -5.69541 -2.99244
ltoes -34.3991
154
root -0.968269 17.9899 20.9647 -152.833 -4.37353 177.278
lowerback -24.5688 -1.1157 -6.67302
upperback -0.50279 0.110594 -0.187139
thorax 13.2376 -0.516194 3.62992
lowerneck -2.97108 3.29173 1.6058
upperneck 3.45659 4.23585 1.27395
head 1.57479 2.1466 0.221855
rclavicle -2.00276e-014 4.02539e-015
rhumerus -46.4375 -10.0103 -82.4776
rradius 48.2108
rwrist -25.5505
rhand 7.27879 -65.7326
rfingers 7.12502
rthumb 32.541 452.829
lclavicle -2.00276e-014 4.02539e-015
lhumerus -30.2943 4.56004 80.8143
lradius 19.0689
lwrist -5.30537
lhand -20.6285 -11.0942
lfingers 7.12502
lthumb 5.73301 18.8082
rfemur -24.8342 3.28614 19.579
rtibia 5.42754
rfoot -16.9806 -1.39902
rtoes -15.6
lfemur -26.1662 -8.25616 -23.0028
ltibia 7.28514
lfoot -5.7078 -3.05583
ltoes -33.9232
155
root -0.963724 17.9917 20.9482 -153.17 -4.76878 177.112
lowerback -24.2968 -1.23451 -6.90359
upperback -0.423974 0.0125947 -0.164726
thorax 13.1912 -0.570592 3.75358
lowerneck -2.85333 3.42838 2.00189
upperneck 2.85761 4.44044 0.718758
head 1.38632 2.24168 -0.019545
rclavicle -1.41013e-014 3.01159e-014
rhumerus -46.4826 -9.93771 -82.4837
rradius 48.1727
rwrist -25.7559
rhand 6.80226 -64.5579
rfingers 7.12502
rthumb 32.0874 451.746
lclavicle -1.41013e-014 3.01159e-014
lhumerus -30.3572 4.62955 80.705
lradius 18.9351
lwrist -5.28861
lhand -20.9187 -10.4721
lfingers 7.12502
lthumb 5.45283 19.4378
rfemur -24.1264 3.73967 19.3599
rtibia 5.11965
rfoot -16.9489 -2.3714
rtoes -15.7162
lfemur -25.6783 -8.32902 -23.1583
ltibia 7.23538
lfoot -5.72259 -3.46061
ltoes -33.4734
156
root -0.97147 17.9857 20.9503 -152.838 -4.62381 177.324
lowerback -24.6468 -1.07137 -6.62101
upperback -0.548831 0.150833 -0.168036
thorax 13.2219 -0.495854 3.63626
lowerneck -2.67482 3.80186 2.1563
upperneck 2.05987 4.95823 0.430181
head 1.11843 2.49232 -0.135625
rclavicle 1.05356e-014 3.37934e-015
rhumerus -46.4017 -9.84656 -82.5346
rradius 47.8848
rwrist -25.8529
rhand 6.7627 -65.2023
rfingers 7.12502
rthumb 32.0498 452.398
lclavicle 1.05356e-014 3.37934e-015
lhumerus -30.3536 4.96446 80.5095
lradius 18.6976
lwrist -5.46961
lhand -21.1386 -9.9049
lfingers 7.12502
lthumb 5.24049 20.0103
rfemur -24.7898 3.80855 19.5417
rtibia 5.58847
rfoot -17.085 -2.17669
rtoes -16.08
lfemur -26.1113 -8.31807 -22.9373
ltibia 7.2748
lfoot -5.70782 -3.18771
ltoes -34.2357
